<?xml version="1.0" encoding="UTF-8"?>
<svg width="52px" height="52px" viewBox="0 0 52 52" version="1.1" xmlns="http://www.w3.org/2000/svg" xmlns:xlink="http://www.w3.org/1999/xlink">
    <!-- Generator: Sketch 49 (51002) - http://www.bohemiancoding.com/sketch -->
    <title>Page 1</title>
    <desc>Created with Sketch.</desc>
    <defs></defs>
    <g id="Enrollment-Flow" stroke="none" stroke-width="1" fill="none" fill-rule="evenodd" stroke-linecap="round" stroke-linejoin="round">
        <g id="12-Buy-Ups" transform="translate(-546.000000, -500.000000)" stroke="#0070D2" stroke-width="3">
            <path d="M581.936081,501.616364 C579.212425,501.555611 576.651673,502.231418 574.438769,503.458299 C573.046834,504.229267 571.32963,504.229267 569.938232,503.458299 C567.724791,502.231418 565.164576,501.555611 562.440382,501.616364 C554.223716,501.800772 547.808662,508.969052 548.004361,517.185719 C548.303285,529.788407 555.646834,544.445934 559.115113,549.31959 C559.862425,550.370665 561.477479,550.167439 561.938232,548.962063 L569.174791,530.009375 C570.231242,527.24217 574.145759,527.24217 575.20221,530.009375 L582.438769,548.962063 C582.898984,550.167439 584.514038,550.370665 585.261888,549.31959 C588.730167,544.445934 596.073178,529.788407 596.37264,517.185719 C596.567802,508.969052 590.152748,501.800772 581.936081,501.616364 Z" id="Page-1"></path>
        </g>
    </g>
</svg>