<?xml version="1.0" encoding="UTF-8"?>
<svg width="49px" height="49px" viewBox="0 0 49 49" version="1.1" xmlns="http://www.w3.org/2000/svg" xmlns:xlink="http://www.w3.org/1999/xlink">
    <!-- Generator: Sketch 49 (51002) - http://www.bohemiancoding.com/sketch -->
    <title>Group 5</title>
    <desc>Created with Sketch.</desc>
    <defs></defs>
    <g id="Enrollment-Flow" stroke="none" stroke-width="1" fill="none" fill-rule="evenodd" stroke-linecap="round" stroke-linejoin="round">
        <g id="19-Review" transform="translate(-369.000000, -803.000000)" stroke="#0070D2" stroke-width="3">
            <g id="Group-5" transform="translate(370.000000, 804.000000)">
                <path d="M44.2002,23.5001 C44.2002,34.9331 34.9322,44.2001 23.5002,44.2001 C12.0672,44.2001 2.8002,34.9331 2.8002,23.5001 C2.8002,12.0671 12.0672,2.8001 23.5002,2.8001 C34.9322,2.8001 44.2002,12.0671 44.2002,23.5001 Z" id="Stroke-1"></path>
                <path d="M35,23.5001 C35,29.8521 29.852,35.0001 23.5,35.0001 C17.148,35.0001 12,29.8521 12,23.5001 C12,17.1481 17.148,12.0001 23.5,12.0001 C29.852,12.0001 35,17.1481 35,23.5001 Z" id="Stroke-3"></path>
                <path d="M31.6318,15.3682 L38.1368,8.8632" id="Stroke-5"></path>
                <path d="M15.3682,31.6319 L8.8632,38.1369" id="Stroke-7"></path>
                <path d="M31.6318,31.6319 L38.1368,38.1369" id="Stroke-9"></path>
                <path d="M15.3682,15.3682 L8.8632,8.8632" id="Stroke-11"></path>
                <path d="M3.2031,19.4083 C1.5161,17.4063 0.5001,14.8223 0.5001,12.0003 C0.5001,5.6483 5.6481,0.5003 12.0001,0.5003 C14.8221,0.5003 17.4071,1.5163 19.4081,3.2033" id="Stroke-13"></path>
                <path d="M27.5918,3.2032 C29.5928,1.5162 32.1778,0.5002 34.9998,0.5002 C41.3518,0.5002 46.4998,5.6482 46.4998,12.0002 C46.4998,14.8222 45.4838,17.4062 43.7968,19.4082" id="Stroke-15"></path>
                <path d="M43.7969,27.5919 C45.4839,29.5929 46.4999,32.1779 46.4999,34.9999 C46.4999,41.3519 41.3519,46.4999 34.9999,46.4999 C32.1779,46.4999 29.5929,45.4839 27.5919,43.7969" id="Stroke-17"></path>
                <path d="M19.4082,43.7969 C17.4072,45.4839 14.8222,46.4999 12.0002,46.4999 C5.6482,46.4999 0.5002,41.3519 0.5002,34.9999 C0.5002,32.1779 1.5162,29.5929 3.2032,27.5919" id="Stroke-19"></path>
            </g>
        </g>
    </g>
</svg>