<?xml version="1.0" encoding="UTF-8"?>
<svg width="53px" height="39px" viewBox="0 0 53 39" version="1.1" xmlns="http://www.w3.org/2000/svg" xmlns:xlink="http://www.w3.org/1999/xlink">
    <!-- Generator: Sketch 49 (51002) - http://www.bohemiancoding.com/sketch -->
    <title>Page 1</title>
    <desc>Created with Sketch.</desc>
    <defs></defs>
    <g id="Enrollment-Flow" stroke="none" stroke-width="1" fill="none" fill-rule="evenodd" stroke-linecap="round" stroke-linejoin="round">
        <g id="19-Review" transform="translate(-367.000000, -416.000000)" stroke="#0070D2" stroke-width="3">
            <g id="Page-1" transform="translate(368.000000, 417.000000)">
                <path d="M42.2461,3.7542 C37.9061,-0.5848 30.8711,-0.5848 26.5321,3.7542 C26.1501,4.1362 25.8141,4.5452 25.5001,4.9642 C25.1851,4.5452 24.8501,4.1362 24.4681,3.7542 C20.1291,-0.5848 13.0941,-0.5848 8.7541,3.7542 C4.4151,8.0932 4.4151,15.1282 8.7541,19.4682 L25.5001,36.2132 L42.2461,19.4682 C46.5851,15.1282 46.5851,8.0932 42.2461,3.7542 Z" id="Stroke-1"></path>
                <path d="M0.5,17.3567 L19.5,17.3567" id="Stroke-3"></path>
                <path d="M31.5,17.3567 L50.5,17.3567" id="Stroke-5"></path>
                <polyline id="Stroke-7" points="19.5 17.3567 22.5 11.3567 28.5 23.3567 31.5 17.3567"></polyline>
            </g>
        </g>
    </g>
</svg>