<?xml version="1.0" encoding="UTF-8"?>
<svg width="47px" height="53px" viewBox="0 0 47 53" version="1.1" xmlns="http://www.w3.org/2000/svg" xmlns:xlink="http://www.w3.org/1999/xlink">
    <!-- Generator: Sketch 49 (51002) - http://www.bohemiancoding.com/sketch -->
    <title>Page 1</title>
    <desc>Created with Sketch.</desc>
    <defs></defs>
    <g id="Enrollment-Flow" stroke="none" stroke-width="1" fill="none" fill-rule="evenodd" stroke-linecap="round" stroke-linejoin="round">
        <g id="12-Buy-Ups" transform="translate(-844.000000, -499.000000)" stroke="#0070D2" stroke-width="3">
            <g id="Page-1" transform="translate(846.000000, 501.000000)">
                <path d="M18.75,39.9456522 L24.1853261,39.9456522" id="Stroke-1"></path>
                <g id="Group-10" transform="translate(0.000000, 0.144946)">
                    <path d="M42.6630435,39.8007065 L42.6630435,3.38766304 C42.6630435,1.58711957 41.2027174,0.126793478 39.4021739,0.126793478 L37.2282609,0.126793478" id="Stroke-2"></path>
                    <path d="M0.27173913,39.8007065 L0.27173913,3.38766304 C0.27173913,1.58711957 1.73206522,0.126793478 3.5326087,0.126793478 L5.70652174,0.126793478" id="Stroke-4"></path>
                    <path d="M42.6630435,39.9455978 C42.6630435,45.0483152 38.5266304,49.1847283 33.423913,49.1847283 C28.3211957,49.1847283 24.1847826,45.0483152 24.1847826,39.9455978 C24.1847826,34.8428804 28.3211957,30.7064674 33.423913,30.7064674 C38.5266304,30.7064674 42.6630435,34.8428804 42.6630435,39.9455978 Z" id="Stroke-6"></path>
                    <path d="M18.75,39.9455978 C18.75,45.0483152 14.613587,49.1847283 9.51086957,49.1847283 C4.40815217,49.1847283 0.27173913,45.0483152 0.27173913,39.9455978 C0.27173913,34.8428804 4.40815217,30.7064674 9.51086957,30.7064674 C14.613587,30.7064674 18.75,34.8428804 18.75,39.9455978 Z" id="Stroke-8"></path>
                </g>
            </g>
        </g>
    </g>
</svg>