<?xml version="1.0" encoding="UTF-8"?>
<svg width="33px" height="38px" viewBox="0 0 33 38" version="1.1" xmlns="http://www.w3.org/2000/svg" xmlns:xlink="http://www.w3.org/1999/xlink">
    <!-- Generator: Sketch 49.3 (51167) - http://www.bohemiancoding.com/sketch -->
    <title>Page 1 Copy</title>
    <desc>Created with Sketch.</desc>
    <defs></defs>
    <g id="Mockups" stroke="none" stroke-width="1" fill="none" fill-rule="evenodd" stroke-linecap="round" stroke-linejoin="round">
        <g id="Coverage" transform="translate(-388.000000, -2286.000000)" stroke="#FF6D00" stroke-width="2">
            <g id="Group-11" transform="translate(389.000000, 2278.000000)">
                <g id="Page-1-Copy" transform="translate(0.000000, 9.000000)">
                    <polyline id="Stroke-1" points="16 30.2364532 19.1395349 36 22.627907 31.7307061 31 36 23.9186047 23"></polyline>
                    <polyline id="Stroke-3" points="19 24.1990189 12.2557389 36 8.65110985 31.7953749 0 36 7.42914058 23"></polyline>
                    <path d="M17.2966271,0.744265665 L18.7251092,2.17342241 C19.2015014,2.64911355 19.8480337,2.91716724 20.5223439,2.91716724 L22.5424968,2.91716724 C23.9452843,2.91716724 25.0834867,4.05535378 25.0834867,5.45812182 L25.0834867,7.47824668 C25.0834867,8.15185311 25.3508497,8.79907084 25.8272419,9.27476198 L27.255724,10.7032243 C28.248092,11.6962729 28.248092,13.3045951 27.255724,14.2969493 L25.8272419,15.7254116 C25.3508497,16.2017972 25.0834867,16.8476261 25.0834867,17.5219269 L25.0834867,19.5420518 C25.0834867,20.9455143 23.9452843,22.0837008 22.5424968,22.0837008 L20.5223439,22.0837008 C19.8480337,22.0837008 19.2015014,22.3510601 18.7251092,22.8274456 L17.2966271,24.2552135 C16.3042591,25.2482622 14.6952201,25.2482622 13.7028521,24.2552135 L12.2750644,22.8274456 C11.7979778,22.3510601 11.1514455,22.0837008 10.4778297,22.0837008 L8.45767679,22.0837008 C7.05419482,22.0837008 5.91668692,20.9455143 5.91668692,19.5420518 L5.91668692,17.5219269 C5.91668692,16.8476261 5.64932395,16.2017972 5.17223731,15.7254116 L3.74375516,14.2969493 C2.75208161,13.3045951 2.75208161,11.6962729 3.74375516,10.7032243 L5.17223731,9.27476198 C5.64932395,8.79907084 5.91668692,8.15185311 5.91668692,7.47824668 L5.91668692,5.45812182 C5.91668692,4.05535378 7.05419482,2.91716724 8.45767679,2.91716724 L10.4778297,2.91716724 C11.1514455,2.91716724 11.7979778,2.64911355 12.2750644,2.17342241 L13.7028521,0.744265665 C14.6952201,-0.248088555 16.3042591,-0.248088555 17.2966271,0.744265665 Z" id="Stroke-5"></path>
                    <path d="M21,13 C21,15.7614286 18.7607143,18 16,18 C13.2385714,18 11,15.7614286 11,13 C11,10.2385714 13.2385714,8 16,8 C18.7607143,8 21,10.2385714 21,13 Z" id="Stroke-7"></path>
                </g>
            </g>
        </g>
    </g>
</svg>