<?xml version="1.0" encoding="UTF-8"?>
<svg width="32px" height="32px" viewBox="0 0 32 32" version="1.1" xmlns="http://www.w3.org/2000/svg" xmlns:xlink="http://www.w3.org/1999/xlink">
    <!-- Generator: Sketch 49.3 (51167) - http://www.bohemiancoding.com/sketch -->
    <title>Group</title>
    <desc>Created with Sketch.</desc>
    <defs></defs>
    <g id="Mockups" stroke="none" stroke-width="1" fill="none" fill-rule="evenodd">
        <g id="Coverage" transform="translate(-389.000000, -717.000000)" fill="#FF6D00" fill-rule="nonzero">
            <g id="Group-13" transform="translate(389.000000, 706.000000)">
                <g id="Group" transform="translate(0.000000, 11.000000)">
                    <path d="M22.7126642,7.22118876 L7.22091651,22.712823 C6.92636116,23.007383 6.92636116,23.4846992 7.22091651,23.7796175 C7.36783584,23.9272559 7.56098101,24 7.7534095,24 C7.94655467,24 8.13969984,23.9272559 8.28661917,23.7796175 L23.7790835,8.28726661 C24.0736388,7.99270662 24.0736388,7.5161071 23.7790835,7.22118876 C23.4845282,6.92627041 23.0075778,6.92627041 22.7126642,7.22118876 Z" id="Shape"></path>
                    <path d="M4.43666921,12.6586504 C4.73440377,12.6186955 6.50914217,12.6788046 8.15658315,12.7636646 L10.9316672,15.5389384 L3.31362295,23.1554721 C3.31220854,23.1568865 3.31008691,23.1575936 3.30937971,23.1583008 C3.30796529,23.1597151 3.30796529,23.1611295 3.30655087,23.1625438 L2.01448191,24.4545365 C1.3928461,25.0754284 1.05091105,25.9013985 1.05020384,26.7804062 C1.05020384,27.6579994 1.3928461,28.4839696 2.0137747,29.1048615 L3.04205509,30.1352027 C3.66298369,30.7553875 4.4890026,31.0980095 5.3673549,31.0980095 C6.24712162,31.0980095 7.07314053,30.7553875 7.69406913,30.1337884 L8.98896693,28.838967 C8.98967414,28.8382598 8.99108855,28.8382598 8.99179576,28.8375527 C8.99250297,28.8361383 8.99250297,28.8354312 8.99321018,28.834724 L16.6116081,21.2167759 L19.236764,23.8424841 C19.321629,25.4894742 19.3817417,27.2637543 19.3439061,27.5476815 C19.2533834,27.9999143 19.1596784,28.4684119 23.740618,31.8536166 C23.8682691,31.949084 24.0238548,32 24.1833302,32 C24.1833302,32 24.1833302,32 24.1840374,32 L25.8268815,31.9985857 C26.0942061,31.9985857 26.3413753,31.8550309 26.4732696,31.6223732 C26.6051639,31.3904227 26.6030423,31.1050812 26.4661975,30.8752521 L24.7678376,28.015472 C24.7034817,27.8068579 24.4757607,26.7959638 25.7070098,25.9286244 C27.1026847,24.9467242 27.7168948,25.4445692 28.1829449,25.9873192 C28.5945399,26.4678387 29.6496942,28.2449474 30.021332,28.8884686 C30.1482758,29.1094581 30.3805937,29.249477 30.6358957,29.2600845 C30.8922586,29.2703384 31.1323557,29.149413 31.2773334,28.939031 C31.3409821,28.8456851 32.8172787,26.6336692 31.3583087,22.8605838 C30.2271295,19.9325621 28.7119365,19.5188699 28.4866907,19.4711361 L24.2593551,18.8732271 L21.6087396,16.2213538 L29.5432594,8.287656 C29.5439666,8.28694883 29.5439666,8.28624166 29.5446738,8.2855345 C29.6054937,8.22542537 29.6504014,8.1515265 29.6868226,8.07267747 C29.69637,8.05252323 29.703442,8.03342974 29.7108677,8.01186117 C29.7190006,7.98958543 29.7317304,7.96978478 29.7377416,7.94609471 L31.3049145,1.82946052 C31.3699776,1.57594143 31.2974888,1.30792543 31.1150291,1.1222943 C30.9318623,0.935956004 30.6648913,0.859935635 30.4113572,0.92075193 L24.2158618,2.4096904 C24.1348865,2.42984464 24.0631049,2.46484936 23.9955665,2.50763292 C23.9623277,2.52637283 23.9287353,2.55112364 23.8954966,2.58153179 C23.8873637,2.58860345 23.8774628,2.5939072 23.8700371,2.60168603 C23.8679155,2.60380753 23.8657938,2.60522186 23.8636722,2.60734336 L15.9287988,10.5421019 L13.127548,7.74101651 L12.5189955,3.45735715 C12.4818671,3.28799084 12.0674432,1.77359439 9.13818781,0.641067691 C5.36558688,-0.816755465 3.15344035,0.658746847 3.06114971,0.723098972 C2.85040173,0.867360881 2.72946917,1.10991889 2.73972368,1.36485231 C2.7499782,1.6204929 2.89035898,1.85244342 3.11136147,1.98008692 C3.75492073,2.35170277 5.53071995,3.40538043 6.01197497,3.81765834 C6.5561715,4.28368087 7.05404592,4.89785473 6.07067323,6.29344726 C5.2075259,7.52002707 4.20930185,7.30186629 3.9829953,7.23185683 L1.12375347,5.53359716 C0.893203669,5.39746767 0.607845252,5.394639 0.375881037,5.52723267 C0.143209614,5.65911917 0,5.90627376 0,6.17428976 L0,7.81774404 C0,7.97650286 0.05056537,8.13207943 0.144977634,8.25972293 C3.5307358,12.8396849 3.99890748,12.7456318 4.43666921,12.6586504 Z M4.09473416,29.0832929 L3.06645377,28.0536589 C2.72664034,27.7124512 2.53887662,27.2609256 2.53887662,26.7800526 C2.53887662,26.298826 2.72664034,25.8469467 3.06716097,25.5064462 L3.83660325,24.7370494 L7.41260036,28.311421 L6.64245088,29.081525 C5.96247041,29.7621725 4.77365381,29.7621725 4.09473416,29.0832929 Z M23.383478,20.0994533 C23.4973385,20.2140142 23.6458521,20.2879131 23.8053275,20.310896 L28.2211341,20.9332023 C28.229267,20.9353238 29.1595991,21.2963321 29.9711203,23.3966158 C30.5255713,24.8311025 30.5775511,25.9551432 30.4760667,26.7432799 C30.0658861,26.0753614 29.6016041,25.3544055 29.3130632,25.0181479 C27.7879692,23.2421 26.0450552,23.8711243 24.8495201,24.7122986 C22.9874415,26.0230311 23.0885723,27.8365589 23.4011582,28.6119667 C23.415656,28.647325 23.4322753,28.6809154 23.4510164,28.7127378 L24.519254,30.5110615 L24.4280242,30.5117687 C22.9237928,29.3894959 21.253014,28.0423443 20.82975,27.5476815 C20.8675856,26.7210042 20.7738806,24.711945 20.707403,23.4786471 C20.6978557,23.2947839 20.6204164,23.1222353 20.4906438,22.9924703 L17.6639335,20.1659269 L18.5624412,19.2667651 L21.2813023,21.9861728 C21.4262799,22.1311419 21.6168725,22.2043336 21.807465,22.2043336 C21.9973504,22.2043336 22.1879429,22.1311419 22.3329205,21.9861728 C22.623583,21.6955275 22.623583,21.2252619 22.3329205,20.9335559 L19.6140595,18.2148553 L20.5560605,17.2729099 L23.383478,20.0994533 Z M20.0313122,15.6948685 C20.0313122,15.6948685 20.0313122,15.6948685 20.030605,15.6948685 C20.030605,15.6948685 20.030605,15.6948685 20.030605,15.6955757 L16.0865061,19.6380274 C16.0865061,19.6380274 16.0857989,19.6387345 16.0850917,19.6387345 C16.0850917,19.6394417 16.0850917,19.6394417 16.0843845,19.6401489 L8.46527943,27.2588041 L4.88928231,23.6851396 L14.4539165,14.1207165 C14.4567454,14.1178879 14.4602814,14.1171807 14.4620494,14.1150592 C14.4648783,14.1122305 14.4655855,14.1086947 14.4677071,14.1062196 L24.3901885,4.18573835 L27.9654784,7.76081716 L20.0313122,15.6948685 Z M29.5577572,2.65613783 L28.6214138,6.31218717 L25.8548162,3.54646009 L29.5577572,2.65613783 Z M1.48831918,7.48184009 L3.28604184,8.54895391 C3.3178662,8.56769382 3.35181218,8.58431222 3.38611177,8.5995163 C4.16227252,8.91314451 5.97590736,9.0139157 7.28671734,7.15053272 C8.12935564,5.95648256 8.75841713,4.2119035 6.98084989,2.68796031 C6.64598692,2.40049724 5.93029245,1.94013203 5.26516335,1.53174354 C6.05794349,1.43097236 7.18240416,1.48012041 8.60177056,2.02888139 C10.5596758,2.78660999 11.0009736,3.63874528 11.0653295,3.78866452 L11.689087,8.19607797 C11.711364,8.35554395 11.7849136,8.50334169 11.8998349,8.61790262 L14.8764733,11.5936581 L13.9344723,12.5356035 L11.0992755,9.69951335 C10.808613,9.40886803 10.3376125,9.4095752 10.0465965,9.69951335 C9.75593397,9.99086583 9.75593397,10.4611314 10.0465965,10.7521303 L12.8825004,13.5878668 L11.9832855,14.4870286 L9.00664713,11.510566 C8.87687447,11.380801 8.70431572,11.3033663 8.52044165,11.2938196 C7.28707094,11.2269924 5.27718589,11.1315249 4.45045977,11.1693583 C3.9568286,10.7468265 2.60924381,9.07685349 1.48831918,7.57271095 L1.48831918,7.48184009 Z" id="Shape"></path>
                </g>
            </g>
        </g>
    </g>
</svg>