<?xml version="1.0" encoding="UTF-8"?>
<svg width="26px" height="38px" viewBox="0 0 26 38" version="1.1" xmlns="http://www.w3.org/2000/svg" xmlns:xlink="http://www.w3.org/1999/xlink">
    <!-- Generator: Sketch 49.3 (51167) - http://www.bohemiancoding.com/sketch -->
    <title>Page 1 Copy 13</title>
    <desc>Created with Sketch.</desc>
    <defs></defs>
    <g id="Prototype" stroke="none" stroke-width="1" fill="none" fill-rule="evenodd" stroke-linecap="round" stroke-linejoin="round">
        <g id="Coverage-Configure_5" transform="translate(-384.000000, -2030.000000)" stroke="#FF6D00" stroke-width="2">
            <g id="Group-8" transform="translate(357.000000, 1939.000000)">
                <g id="Page-1-Copy-13" transform="translate(28.000000, 92.000000)">
                    <path d="M2.83422121,16.3730328 L5.158407,13.9519013 C8.93667751,10.0160329 15.0633225,10.0160329 18.841593,13.9519013 L21.1657788,16.3730328 C24.9447404,20.3096212 24.9447404,26.6910988 21.1657788,30.6269672 L18.841593,33.0480987 C15.0633225,36.9839671 8.93667751,36.9839671 5.158407,33.0480987 L2.83422121,30.6269672 C-0.944740404,26.6910988 -0.944740404,20.3096212 2.83422121,16.3730328 Z" id="Stroke-1"></path>
                    <path d="M3.1592,6.64042186 L10.6184,10.5359512 C11.8028,11.1546829 13.1972,11.1546829 14.3809,10.5359512 L21.8401,6.64042186 C22.5513,6.26903688 23,5.51167418 23,4.68353675 L23,0 L2,0 L2,4.68353675 C2,5.51167418 2.448,6.26903688 3.1592,6.64042186 Z" id="Stroke-3"></path>
                    <path d="M19,8 L19,0" id="Stroke-5"></path>
                    <path d="M6,8 L6,0" id="Stroke-7"></path>
                    <polygon id="Stroke-9" points="12 18 13.3817664 19.0495452 15.0904898 19.0495452 15.6182336 20.7498226 17 21.8000774 16.4722561 23.4996452 17 25.1999226 15.6182336 26.2494678 15.0904898 27.9497452 13.3817664 27.9497452 12 29 10.6182336 27.9497452 8.90951024 27.9497452 8.38176638 26.2494678 7 25.1999226 7.52774386 23.4996452 7 21.8000774 8.38176638 20.7498226 8.90951024 19.0495452 10.6182336 19.0495452"></polygon>
                </g>
            </g>
        </g>
    </g>
</svg>